# xmcd
#
# Track frame offsets: 
#        150
#        17295
#        32050
#        48812
#        62242
#        81190
#        94220
#        115847
#        139387
#        154545
#        167302
#        180765
#        195765
#        215882
#
# Disc length: 3096 seconds
#
# Revision: 0
# Processed by: cddbd v1.5.2PL0 Copyright (c) Steve Scherf et al.
# Submitted via: ExactAudioCopy v0.95a3
#
DISCID=a70c160e
DTITLE=Country Heartaches - Country Heartaches
DYEAR=1997
DGENRE=Country
TTITLE0=Wynona - Is It Over Yet
TTITLE1=The Mavericks - There Goes My Heart
TTITLE2=John Berry - If I Had Any Pride Left At All
TTITLE3=Diamond Rio - In A Week or Two
TTITLE4=Mark Chesnutt - I'll Think Of Something
TTITLE5=Marty Brown - Every Now and Then
TTITLE6=Steve Wariner - Drivin' and Cryin'
TTITLE7=Conway Twitty - Rainy Night In Georgia
TTITLE8=Marty Stuart - I'm Blue, I'm Lonesome
TTITLE9=Patsy Cline - I Fall To Pieces
TTITLE10=David Ball - When the Thought of You Catches Up With Me
TTITLE11=Billy Dean - Somewhere in My Broken Heart
TTITLE12=Lorrie Morgan - It's A Heartache
TTITLE13=Radney Foster - Closing Time
EXTD=
EXTT0=
EXTT1=
EXTT2=
EXTT3=
EXTT4=
EXTT5=
EXTT6=
EXTT7=
EXTT8=
EXTT9=
EXTT10=
EXTT11=
EXTT12=
EXTT13=
PLAYORDER=
